<?xml version="1.0" standalone="no"?>
<!DOCTYPE svg PUBLIC "-//W3C//DTD SVG 20010904//EN"
 "http://www.w3.org/TR/2001/REC-SVG-20010904/DTD/svg10.dtd">
<svg version="1.0" xmlns="http://www.w3.org/2000/svg"
 width="30.000000pt" height="30.000000pt" viewBox="0 0 30.000000 30.000000"
 preserveAspectRatio="xMidYMid meet">

<g transform="translate(0.000000,30.000000) scale(0.100000,-0.100000)"
fill="#000000" stroke="none">
<path d="M224 255 c-4 -9 -2 -21 4 -27 15 -15 44 -1 40 19 -4 23 -36 29 -44 8z"/>
<path d="M118 253 c-31 -8 -20 -25 14 -21 40 4 47 -14 13 -36 -28 -19 -32 -38
-10 -56 23 -19 18 -30 -15 -30 -16 0 -30 -5 -30 -11 0 -6 19 -9 48 -7 48 3 54
10 37 50 -5 12 -1 20 11 25 10 4 19 2 22 -5 4 -14 62 -16 62 -3 0 5 -10 11
-22 13 -15 2 -24 11 -26 25 -4 24 -51 64 -74 62 -7 -1 -21 -3 -30 -6z"/>
<path d="M63 203 c9 -2 25 -2 35 0 9 3 1 5 -18 5 -19 0 -27 -2 -17 -5z"/>
<path d="M43 173 c9 -2 25 -2 35 0 9 3 1 5 -18 5 -19 0 -27 -2 -17 -5z"/>
<path d="M53 143 c9 -2 25 -2 35 0 9 3 1 5 -18 5 -19 0 -27 -2 -17 -5z"/>
<path d="M130 55 c-7 -9 -10 -18 -7 -22 8 -7 37 15 37 28 0 14 -16 11 -30 -6z"/>
</g>
</svg>
