<?xml version="1.0" standalone="no"?>
<!DOCTYPE svg PUBLIC "-//W3C//DTD SVG 20010904//EN"
 "http://www.w3.org/TR/2001/REC-SVG-20010904/DTD/svg10.dtd">
<svg version="1.0" xmlns="http://www.w3.org/2000/svg"
 width="60.000000pt" height="60.000000pt" viewBox="0 0 60.000000 60.000000"
 preserveAspectRatio="xMidYMid meet">

<g transform="translate(0.000000,60.000000) scale(0.100000,-0.100000)"
fill="#000000" stroke="none">
<path d="M130 503 c-68 -35 -86 -119 -45 -208 25 -53 187 -215 216 -215 28 0
188 160 214 215 20 40 27 136 12 151 -4 4 -57 -41 -117 -101 l-110 -110 -62
62 c-49 50 -60 65 -50 75 10 10 23 2 62 -37 l50 -50 97 98 c93 92 97 97 80
114 -27 27 -104 24 -144 -5 l-33 -23 -30 21 c-43 30 -97 35 -140 13z"/>
</g>
</svg>
